<svg width="32" height="32" viewBox="0 0 32 32" fill="none" xmlns="http://www.w3.org/2000/svg">
<path d="M28 16C28 9.375 22.625 4 16 4C9.375 4 4 9.375 4 16C4 22.625 9.375 28 16 28C22.625 28 28 22.625 28 16Z" stroke="white" stroke-miterlimit="10"/>
<path d="M13.5201 20.9026L20.6733 16.5814C20.773 16.5206 20.8554 16.4353 20.9126 16.3335C20.9697 16.2317 20.9998 16.1169 20.9998 16.0001C20.9998 15.8834 20.9697 15.7686 20.9126 15.6668C20.8554 15.565 20.773 15.4796 20.6733 15.4189L13.5201 11.0976C13.4176 11.0362 13.3006 11.0031 13.1811 11.0019C13.0615 11.0006 12.9438 11.0311 12.84 11.0904C12.7362 11.1496 12.65 11.2354 12.5903 11.3389C12.5306 11.4424 12.4994 11.56 12.5001 11.6795V20.3208C12.4994 20.4403 12.5306 20.5578 12.5903 20.6614C12.65 20.7649 12.7362 20.8507 12.84 20.9099C12.9438 20.9691 13.0615 20.9997 13.1811 20.9984C13.3006 20.9971 13.4176 20.9641 13.5201 20.9026Z" fill="white"/>
</svg>
